<svg width="24" height="24" viewBox="0 0 24 24" fill="none" xmlns="http://www.w3.org/2000/svg">
<path fill-rule="evenodd" clip-rule="evenodd" d="M13.2006 1.2C13.2006 0.537258 12.6634 0 12.0006 0C11.3379 0 10.8006 0.537258 10.8006 1.2V10.8H1.2C0.537258 10.8 0 11.3373 0 12C0 12.6628 0.537258 13.2 1.2 13.2H10.8006V22.8C10.8006 23.4627 11.3379 24 12.0006 24C12.6634 24 13.2006 23.4627 13.2006 22.8V13.2H22.8C23.4627 13.2 24 12.6628 24 12C24 11.3373 23.4627 10.8 22.8 10.8H13.2006V1.2Z" fill="white"/>
</svg>
