<svg width="12" height="12" viewBox="0 0 12 12" fill="none" xmlns="http://www.w3.org/2000/svg">
<path d="M10.9998 0.999848C10.8436 0.843622 10.6317 0.755859 10.4107 0.755859C10.1897 0.755859 9.97779 0.843622 9.82152 0.999848L5.99985 4.82152L2.17818 0.999848C2.02191 0.843622 1.80998 0.755859 1.58901 0.755859C1.36804 0.755859 1.15612 0.843622 0.999848 0.999848C0.843622 1.15612 0.755859 1.36804 0.755859 1.58901C0.755859 1.80998 0.843622 2.02191 0.999848 2.17818L4.82152 5.99985L0.999848 9.82152C0.843622 9.97779 0.755859 10.1897 0.755859 10.4107C0.755859 10.6317 0.843622 10.8436 0.999848 10.9998C1.15612 11.1561 1.36804 11.2438 1.58901 11.2438C1.80998 11.2438 2.02191 11.1561 2.17818 10.9998L5.99985 7.17818L9.82152 10.9998C9.97779 11.1561 10.1897 11.2438 10.4107 11.2438C10.6317 11.2438 10.8436 11.1561 10.9998 10.9998C11.1561 10.8436 11.2438 10.6317 11.2438 10.4107C11.2438 10.1897 11.1561 9.97779 10.9998 9.82152L7.17818 5.99985L10.9998 2.17818C11.1561 2.02191 11.2438 1.80998 11.2438 1.58901C11.2438 1.36804 11.1561 1.15612 10.9998 0.999848Z" fill="#444444"/>
</svg>
