<svg width="20" height="20" viewBox="0 0 20 20" fill="none" xmlns="http://www.w3.org/2000/svg">
<path d="M3 16.0012H7.24C7.37161 16.0019 7.50207 15.9767 7.62391 15.927C7.74574 15.8772 7.85656 15.8039 7.95 15.7112L14.87 8.78325L17.71 6.00406C17.8037 5.91112 17.8781 5.80055 17.9289 5.67873C17.9797 5.5569 18.0058 5.42624 18.0058 5.29426C18.0058 5.16229 17.9797 5.03162 17.9289 4.9098C17.8781 4.78797 17.8037 4.6774 17.71 4.58447L13.47 0.295713C13.377 0.202011 13.2664 0.127639 13.1446 0.0768846C13.0227 0.0261307 12.892 0 12.76 0C12.628 0 12.4973 0.0261307 12.3754 0.0768846C12.2536 0.127639 12.143 0.202011 12.05 0.295713L9.23 3.12489L2.29 10.0529C2.19732 10.1463 2.12399 10.2571 2.07423 10.3789C2.02446 10.5007 1.99924 10.6311 2 10.7627V15.0014C2 15.2666 2.10536 15.5209 2.29289 15.7084C2.48043 15.8958 2.73478 16.0012 3 16.0012ZM12.76 2.4151L15.59 5.24428L14.17 6.66387L11.34 3.83469L12.76 2.4151ZM4 11.1726L9.93 5.24428L12.76 8.07346L6.83 14.0017H4V11.1726ZM19 18.0006H1C0.734784 18.0006 0.48043 18.1059 0.292893 18.2934C0.105357 18.4809 0 18.7351 0 19.0003C0 19.2654 0.105357 19.5197 0.292893 19.7072C0.48043 19.8947 0.734784 20 1 20H19C19.2652 20 19.5196 19.8947 19.7071 19.7072C19.8946 19.5197 20 19.2654 20 19.0003C20 18.7351 19.8946 18.4809 19.7071 18.2934C19.5196 18.1059 19.2652 18.0006 19 18.0006Z" fill="#D96581"/>
</svg>
