<svg width="20" height="11" viewBox="0 0 20 11" fill="none" xmlns="http://www.w3.org/2000/svg">
<path d="M19.5846 0.422521C19.4518 0.288639 19.2939 0.182373 19.1198 0.109854C18.9457 0.0373358 18.759 0 18.5705 0C18.3819 0 18.1952 0.0373358 18.0211 0.109854C17.8471 0.182373 17.6891 0.288639 17.5563 0.422521L11.0142 6.96464C10.8814 7.09852 10.7234 7.20479 10.5493 7.2773C10.3753 7.34982 10.1886 7.38716 10 7.38716C9.81143 7.38716 9.62473 7.34982 9.45067 7.2773C9.2766 7.20479 9.11862 7.09852 8.98583 6.96464L2.44371 0.422521C2.31092 0.288639 2.15294 0.182373 1.97887 0.109854C1.80481 0.0373358 1.61811 0 1.42954 0C1.24097 0 1.05427 0.0373358 0.880208 0.109854C0.706143 0.182373 0.54816 0.288639 0.415371 0.422521C0.149328 0.690152 0 1.05218 0 1.42955C0 1.80692 0.149328 2.16895 0.415371 2.43658L6.97177 8.99298C7.77525 9.79546 8.86441 10.2462 10 10.2462C11.1356 10.2462 12.2247 9.79546 13.0282 8.99298L19.5846 2.43658C19.8507 2.16895 20 1.80692 20 1.42955C20 1.05218 19.8507 0.690152 19.5846 0.422521Z" fill="#D96581"/>
</svg>
