<svg width="80" height="80" viewBox="0 0 80 80" fill="none" xmlns="http://www.w3.org/2000/svg">
<path d="M70.4001 39.9999V77.9999H9.6001V39.9999" stroke="#818181" stroke-width="3" stroke-linecap="round" stroke-linejoin="round"/>
<path d="M78 20.9998H2V39.9998H78V20.9998Z" stroke="#818181" stroke-width="3" stroke-linecap="round" stroke-linejoin="round"/>
<path d="M40.0005 77.9998V20.9998" stroke="#818181" stroke-width="3" stroke-linecap="round" stroke-linejoin="round"/>
<path d="M39.9999 21H22.8999C20.3803 21 17.964 19.9991 16.1824 18.2175C14.4008 16.4359 13.3999 14.0196 13.3999 11.5C13.3999 8.98044 14.4008 6.56408 16.1824 4.78249C17.964 3.00089 20.3803 2 22.8999 2C36.1999 2 39.9999 21 39.9999 21Z" stroke="#818181" stroke-width="3" stroke-linecap="round" stroke-linejoin="round"/>
<path d="M40.0005 21H57.1005C59.62 21 62.0364 19.9991 63.818 18.2175C65.5996 16.4359 66.6005 14.0196 66.6005 11.5C66.6005 8.98044 65.5996 6.56408 63.818 4.78249C62.0364 3.00089 59.62 2 57.1005 2C43.8005 2 40.0005 21 40.0005 21Z" stroke="#818181" stroke-width="3" stroke-linecap="round" stroke-linejoin="round"/>
</svg>
