<svg width="120" height="123" viewBox="0 0 136 123" fill="none" xmlns="http://www.w3.org/2000/svg">
<rect x="3" y="3.19995" width="130" height="91" rx="5" stroke="#F72585" stroke-width="6"/>
<path d="M3 8.19995C3 5.43852 5.23858 3.19995 8 3.19995H128C130.761 3.19995 133 5.43853 133 8.19995V26.6H3V8.19995Z" fill="#F72585" fill-opacity="0.8"/>
<line x1="24.5" y1="44.0999" x2="111.5" y2="44.0999" stroke="#F72585" stroke-opacity="0.9" stroke-width="4" stroke-linecap="round"/>
<line x1="24.5" y1="59.7" x2="59.5" y2="59.7" stroke="#F72585" stroke-opacity="0.9" stroke-width="4" stroke-linecap="round"/>
<rect x="74.5" y="83.8" width="49.4" height="20.8" fill="white"/>
<path d="M119.785 109.587H110.869H98.5527H86.227H77.3139C77.4588 109.461 77.6003 109.335 77.7384 109.209C78.5945 108.424 79.3476 107.595 79.98 106.712L80.0091 106.684L80.1418 106.491C80.7264 105.643 81.237 104.765 81.6627 103.858C82.0909 102.951 82.4387 102.012 82.6982 101.041L82.7023 101.029L82.7242 100.945C82.9656 100.019 83.1459 99.0547 83.2685 98.0581L83.2687 98.0566C83.3909 97.0574 83.457 96.0235 83.457 94.9599V88.5458C83.457 87.6632 83.5353 86.7913 83.6957 85.9189C83.8579 85.0409 84.088 84.2159 84.3888 83.4427L84.3888 83.4427L84.3926 83.4327C84.7018 82.6275 85.0743 81.8538 85.5065 81.1151L85.5073 81.1138C86.375 79.6286 87.4445 78.3518 88.7587 77.2404L119.785 109.587ZM119.785 109.587C119.655 109.474 119.527 109.361 119.402 109.247L119.399 109.245C118.844 108.739 118.335 108.217 117.874 107.682H117.788L117.04 106.625C116.424 105.753 115.891 104.846 115.449 103.912L115.446 103.905C115.019 102.994 114.671 102.038 114.416 101.047L114.414 101.038C114.171 100.083 113.988 99.0986 113.861 98.0871L113.86 98.0841C113.733 97.0635 113.667 96.0412 113.662 95.0225L113.662 95.01C113.653 93.9929 113.648 92.9499 113.644 91.891L113.644 91.8802L113.644 91.8794V91.8786V91.8777V91.8769V91.876V91.875V91.8741V91.8731V91.8721V91.8711V91.8701V91.869V91.8679V91.8668V91.8657V91.8646V91.8634V91.8622V91.861V91.8597V91.8585V91.8572V91.8559V91.8545V91.8532V91.8518V91.8504V91.849V91.8476V91.8461V91.8446V91.8431V91.8416V91.84V91.8384V91.8368V91.8352V91.8336V91.8319V91.8302V91.8285V91.8267V91.825V91.8232V91.8214V91.8196V91.8177V91.8159V91.814V91.812V91.8101V91.8081V91.8062V91.8042V91.8021V91.8001V91.798V91.7959V91.7938V91.7916V91.7895V91.7873V91.7851V91.7829V91.7806V91.7783V91.776V91.7737V91.7714V91.769V91.7666V91.7642V91.7618V91.7593V91.7568V91.7543V91.7518V91.7493V91.7467V91.7441V91.7415V91.7389V91.7362V91.7335V91.7308V91.7281V91.7253V91.7226V91.7198V91.717V91.7141V91.7113V91.7084V91.7055V91.7025V91.6996V91.6966V91.6936V91.6906V91.6876V91.6845V91.6814V91.6783V91.6752V91.672V91.6689V91.6657V91.6625V91.6592V91.6559V91.6527V91.6493V91.646V91.6427V91.6393V91.6359V91.6325V91.629V91.6256V91.6221V91.6186V91.615V91.6115V91.6079V91.6043V91.6007V91.597V91.5934V91.5897V91.586V91.5822V91.5785V91.5747V91.5709V91.5671V91.5632V91.5594V91.5555V91.5515V91.5476V91.5437V91.5397V91.5357V91.5316V91.5276V91.5235V91.5194V91.5153V91.5112V91.507V91.5028V91.4986V91.4944V91.4902V91.4859V91.4816V91.4773V91.4729V91.4686V91.4642V91.4598V91.4554V91.4509V91.4465V91.442V91.4374V91.4329V91.4283V91.4238V91.4192V91.4145V91.4099V91.4052V91.4005V91.3958V91.391V91.3863V91.3815V91.3767V91.3719V91.367V91.3621V91.3572V91.3523V91.3474V91.3424V91.3374V91.3324V91.3274V91.3223V91.3173V91.3122V91.3071V91.3019V91.2968V91.2916V91.2864V91.2811V91.2759V91.2706V91.2653V91.26V91.2546V91.2493V91.2439V91.2385V91.2331V91.2276V91.2221V91.2166V91.2111V91.2056V91.2V91.1944V91.1888V91.1832V91.1775V91.1719V91.1662V91.1604V91.1547V91.1489V91.1431V91.1373V91.1315V91.1256V91.1198V91.1139V91.108V91.102V91.0961V91.0901V91.0841V91.078V91.072V91.0659V91.0598V91.0537V91.0475V91.0414V91.0352V91.029V91.0227V91.0165V91.0102V91.0039V90.9976V90.9913V90.9849V90.9785V90.9721V90.9657V90.9592V90.9527V90.9462V90.9397V90.9332V90.9266V90.92V90.9134V90.9068V90.9001V90.8935V90.8868V90.8801V90.8733V90.8666V90.8598V90.853V90.8461V90.8393V90.8324V90.8255V90.8186V90.8116V90.8047V90.7977V90.7907V90.7837V90.7766V90.7695V90.7624V90.7553V90.7482V90.741V90.7338V90.7266V90.7194V90.7122V90.7049V90.6976V90.6903V90.6829V90.6756V90.6682V90.6608V90.6534V90.6459V90.6384V90.6309V90.6234V90.6159V90.6083V90.6008V90.5931V90.5855V90.5779V90.5702V90.5625V90.5548V90.5471V90.5393V90.5315V90.5237V90.5159V90.508V90.5002V90.4923V90.4844V90.4764V90.4685V90.4605V90.4525V90.4445V90.4364V90.4284V90.4203V90.4122V90.404V90.3959V90.3877V90.3795V90.3713V90.363V90.3548V90.3465V90.3382V90.3298V90.3215V90.3131V90.3047V90.2963V90.2878V90.2794V90.2709V90.2624V90.2538V90.2453V90.2367V90.2281V90.2195V90.2109V90.2022V90.1935V90.1848V90.1761V90.1673V90.1586V90.1498V90.1409V90.1321V90.1232V90.1144V90.1055V90.0965V90.0876V90.0786V90.0696V90.0606V90.0516V90.0425V90.0334V90.0243V90.0152V90.006V89.9969V89.9877V89.9785V89.9692V89.96V89.9507V89.9414V89.9321V89.9227V89.9134V89.904V89.8946V89.8851V89.8757V89.8662V89.8567V89.8472V89.8376V89.8281V89.8185V89.8089V89.7993V89.7896V89.7799V89.7702V89.7605V89.7508V89.741V89.7312V89.7214V89.7116V89.7017V89.6919V89.682V89.6721V89.6621V89.6522V89.6422V89.6322V89.6222V89.6121V89.602V89.592V89.5818V89.5717V89.5616V89.5514V89.5412V89.531V89.5207V89.5104V89.5002V89.4898V89.4795V89.4692V89.4588V89.4484V89.438V89.4275V89.4171V89.4066V89.3961V89.3855V89.375V89.3644V89.3538V89.3432V89.3326V89.3219V89.3112V89.3005V89.2898V89.2791V89.2683V89.2575V89.2467V89.2358V89.225V89.2141V89.2032V89.1923V89.1813V89.1704V89.1594V89.1484V89.1373V89.1263V89.1152V89.1041V89.093V89.0819V89.0707V89.0595V89.0483V89.0371V89.0258V89.0146V89.0033V88.9919V88.9806V88.9693V88.9579V88.9465V88.935V88.9236V88.9121V88.9006V88.8891V88.8776V88.866V88.8545V88.8429V88.8312V88.8196V88.8079V88.7962V88.7845V88.7728V88.7611V88.7493V88.7375V88.7257V88.7138V88.702V88.6901V88.6782V88.6663V88.6543V88.6423V88.6304V88.6183V88.6063V88.5942V88.5822V88.5701V88.558V88.5458C113.644 87.6441 113.565 86.7701 113.413 85.9175C113.257 85.073 113.028 84.2537 112.721 83.4486C112.416 82.6554 112.047 81.8848 111.618 81.1448C110.763 79.6775 109.688 78.387 108.395 77.2851C107.793 76.7736 107.128 76.2945 106.407 75.8538L106.335 75.8098L106.327 75.8041C106.323 75.8017 106.319 75.7992 106.315 75.7966C106.307 75.7913 106.297 75.7853 106.286 75.7785C105.554 75.3454 104.791 74.9728 103.997 74.6603C103.997 74.66 103.996 74.6598 103.995 74.6595L103.875 74.6126C103.035 74.2838 102.451 74.0554 102.102 73.8905C102.098 73.8883 102.092 73.8858 102.086 73.8829C101.953 73.8205 101.493 73.6049 101.11 73.1971C100.845 72.9143 100.577 72.5032 100.46 71.9621C100.368 71.8713 100.242 71.7519 100.071 71.6013L100.061 71.5923L100.061 71.5923C99.8323 71.3886 99.4326 71.1769 98.6175 71.1711L98.6089 71.171V71.171C97.7999 71.1624 97.4042 71.3694 97.1715 71.5746L97.1698 71.576C96.9928 71.7319 96.826 71.962 96.7091 72.3689L96.3084 73.7623L94.9 74.1066C94.2998 74.2533 93.7227 74.429 93.1748 74.6354C92.3742 74.9388 91.5957 75.3127 90.8426 75.7581C90.0969 76.1999 89.4027 76.6963 88.7593 77.2399L119.785 109.587ZM94.0965 117.953H103.013C102.744 118.349 102.409 118.723 101.999 119.067C101.489 119.491 100.962 119.793 100.407 119.992C99.8471 120.193 99.2348 120.3 98.5527 120.3C97.8754 120.3 97.2616 120.192 96.6968 119.992C96.1346 119.788 95.61 119.488 95.121 119.075L95.115 119.07C94.6997 118.721 94.3652 118.349 94.0965 117.953ZM100.479 70.7508C100.479 70.7506 100.478 70.7541 100.477 70.7618C100.478 70.7548 100.478 70.751 100.479 70.7508ZM115.635 67.7064C115.636 67.7065 115.636 67.7066 115.636 67.7067L115.635 67.7064Z" stroke="#F72585" stroke-width="5"/>
</svg>
