<svg width="36" height="27" viewBox="0 0 36 27" fill="none" xmlns="http://www.w3.org/2000/svg">
<path fill-rule="evenodd" clip-rule="evenodd" d="M7.5 0H28.5C30.4884 0.00238179 32.3947 0.793323 33.8007 2.19933C35.2067 3.60534 35.9976 5.51161 36 7.5H0C0.00238179 5.51161 0.793323 3.60534 2.19933 2.19933C3.60534 0.793323 5.51161 0.00238179 7.5 0ZM2.19933 24.8007C0.793323 23.3947 0.00238179 21.4884 0 19.5V10.5H36V19.5C35.9976 21.4884 35.2067 23.3947 33.8007 24.8007C32.3947 26.2067 30.4884 26.9976 28.5 27H7.5C5.51161 26.9976 3.60534 26.2067 2.19933 24.8007ZM10.1208 20C10.368 19.63 10.5 19.195 10.5 18.75C10.5 18.1533 10.2629 17.581 9.84099 17.159C9.41903 16.7371 8.84674 16.5 8.25 16.5C7.80499 16.5 7.36998 16.632 6.99997 16.8792C6.62996 17.1264 6.34157 17.4778 6.17127 17.889C6.00097 18.3001 5.95642 18.7525 6.04323 19.189C6.13005 19.6254 6.34434 20.0263 6.65901 20.341C6.97368 20.6557 7.37459 20.87 7.81105 20.9568C8.2475 21.0436 8.6999 20.999 9.11104 20.8287C9.52217 20.6584 9.87357 20.3701 10.1208 20Z" fill="white"/>
</svg>
