<svg width="36" height="36" viewBox="0 0 36 36" fill="none" xmlns="http://www.w3.org/2000/svg">
<g clip-path="url(#clip0_321_583)">
<path d="M36 18.1096C36 27.0931 29.409 34.5406 20.805 35.8921V23.3476H24.9885L25.785 18.1576H20.805V14.7901C20.805 13.3696 21.501 11.9866 23.73 11.9866H25.9935V7.56762C25.9935 7.56762 23.9385 7.21662 21.975 7.21662C17.874 7.21662 15.195 9.70212 15.195 14.2006V18.1561H10.6365V23.3461H15.195V35.8906C6.5925 34.5376 0 27.0916 0 18.1096C0 8.16912 8.0595 0.109619 18 0.109619C27.9405 0.109619 36 8.16762 36 18.1096Z" fill="white"/>
</g>
<defs>
<clipPath id="clip0_321_583">
<rect width="36" height="36" fill="white"/>
</clipPath>
</defs>
</svg>
