<svg width="34" height="34" viewBox="0 0 34 34" fill="none" xmlns="http://www.w3.org/2000/svg">
<path fill-rule="evenodd" clip-rule="evenodd" d="M32.9862 5.77575C32.5777 5.29754 32.0662 4.91293 31.4882 4.64924C30.9101 4.38555 30.2797 4.24924 29.6415 4.25H6.16068L6.09968 3.75275C5.97485 2.71918 5.46558 1.7662 4.66842 1.07451C3.87126 0.382816 2.84162 0.000484207 1.77472 0H1.4523C1.06713 0 0.69773 0.149256 0.42537 0.414932C0.15301 0.680609 0 1.04094 0 1.41667C0 1.79239 0.15301 2.15272 0.42537 2.4184C0.69773 2.68408 1.06713 2.83333 1.4523 2.83333H1.77472C2.13043 2.83338 2.47376 2.96077 2.73959 3.19135C3.00541 3.42192 3.17524 3.73964 3.21685 4.08425L5.21523 20.6593C5.42269 22.383 6.27174 23.9725 7.60123 25.126C8.93071 26.2795 10.6481 26.9167 12.4274 26.9167H27.5938C27.979 26.9167 28.3484 26.7674 28.6207 26.5017C28.8931 26.2361 29.0461 25.8757 29.0461 25.5C29.0461 25.1243 28.8931 24.7639 28.6207 24.4983C28.3484 24.2326 27.979 24.0833 27.5938 24.0833H12.4274C11.5285 24.0809 10.6524 23.8073 9.91914 23.3C9.18593 22.7928 8.6315 22.0767 8.33187 21.25H25.6433C27.3459 21.2501 28.9943 20.6667 30.3006 19.6016C31.6069 18.5366 32.4881 17.0577 32.7901 15.4232L33.9302 9.25508C34.044 8.64309 34.0184 8.01418 33.8553 7.4129C33.6921 6.81163 33.3954 6.25271 32.9862 5.77575ZM31.0793 8.75217L29.9378 14.9203C29.7565 15.9021 29.2269 16.7903 28.4417 17.4295C27.6566 18.0687 26.666 18.4182 25.6433 18.4167H7.87004L6.50342 7.08333H29.6415C29.8549 7.08209 30.0659 7.12671 30.2595 7.21403C30.4532 7.30134 30.6248 7.42921 30.762 7.58853C30.8993 7.74785 30.9989 7.93471 31.0537 8.13583C31.1086 8.33695 31.1173 8.54738 31.0793 8.75217ZM10.1657 34C11.7699 34 13.0703 32.7315 13.0703 31.1667C13.0703 29.6019 11.7699 28.3333 10.1657 28.3333C8.56155 28.3333 7.26111 29.6019 7.26111 31.1667C7.26111 32.7315 8.56155 34 10.1657 34ZM27.5946 31.1667C27.5946 32.7315 26.2942 34 24.69 34C23.0858 34 21.7854 32.7315 21.7854 31.1667C21.7854 29.6019 23.0858 28.3333 24.69 28.3333C26.2942 28.3333 27.5946 29.6019 27.5946 31.1667Z" fill="#D96581"/>
</svg>
