<svg width="34" height="30" viewBox="0 0 34 30" fill="none" xmlns="http://www.w3.org/2000/svg">
<path d="M34 15.4545V23.1818C34 23.5917 33.8372 23.9848 33.5473 24.2746C33.2575 24.5644 32.8644 24.7273 32.4545 24.7273H30.9091C30.9091 25.9569 30.4206 27.1362 29.5511 28.0057C28.6816 28.8752 27.5024 29.3636 26.2727 29.3636C25.0431 29.3636 23.8638 28.8752 22.9943 28.0057C22.1248 27.1362 21.6364 25.9569 21.6364 24.7273H12.3636C12.3636 25.9569 11.8752 27.1362 11.0057 28.0057C10.1362 28.8752 8.95691 29.3636 7.72727 29.3636C6.49763 29.3636 5.31836 28.8752 4.44887 28.0057C3.57938 27.1362 3.09091 25.9569 3.09091 24.7273H1.54546C1.13557 24.7273 0.742481 24.5644 0.452652 24.2746C0.162823 23.9848 0 23.5917 0 23.1818V4.63636C0 3.40672 0.488472 2.22745 1.35796 1.35796C2.22745 0.488473 3.40672 0 4.63636 0H18.5455C19.7751 0 20.9544 0.488473 21.8239 1.35796C22.6933 2.22745 23.1818 3.40672 23.1818 4.63636V7.72727H26.2727C26.9925 7.72727 27.7024 7.89485 28.3462 8.21675C28.99 8.53864 29.55 9.006 29.9818 9.58182L33.6909 14.5273C33.7361 14.5944 33.7725 14.6672 33.7991 14.7436L33.8918 14.9136C33.96 15.086 33.9967 15.2692 34 15.4545ZM9.27273 24.7273C9.27273 24.4216 9.18209 24.1228 9.01227 23.8687C8.84246 23.6145 8.60109 23.4164 8.31869 23.2995C8.0363 23.1825 7.72556 23.1519 7.42577 23.2115C7.12598 23.2711 6.85061 23.4183 6.63447 23.6345C6.41833 23.8506 6.27115 24.126 6.21151 24.4258C6.15188 24.7256 6.18249 25.0363 6.29946 25.3187C6.41643 25.6011 6.61452 25.8425 6.86866 26.0123C7.12281 26.1821 7.42161 26.2727 7.72727 26.2727C8.13715 26.2727 8.53025 26.1099 8.82008 25.8201C9.10991 25.5302 9.27273 25.1372 9.27273 24.7273ZM20.0909 4.63636C20.0909 4.22648 19.9281 3.83339 19.6383 3.54356C19.3484 3.25373 18.9553 3.09091 18.5455 3.09091H4.63636C4.22648 3.09091 3.83339 3.25373 3.54356 3.54356C3.25373 3.83339 3.09091 4.22648 3.09091 4.63636V21.6364H4.29637C4.73092 21.1583 5.2606 20.7763 5.85143 20.5149C6.44226 20.2535 7.0812 20.1184 7.72727 20.1184C8.37335 20.1184 9.01229 20.2535 9.60312 20.5149C10.194 20.7763 10.7236 21.1583 11.1582 21.6364H20.0909V4.63636ZM23.1818 13.9091H29.3636L27.5091 11.4364C27.3651 11.2444 27.1785 11.0886 26.9639 10.9813C26.7493 10.874 26.5127 10.8182 26.2727 10.8182H23.1818V13.9091ZM27.8182 24.7273C27.8182 24.4216 27.7275 24.1228 27.5577 23.8687C27.3879 23.6145 27.1465 23.4164 26.8641 23.2995C26.5818 23.1825 26.271 23.1519 25.9712 23.2115C25.6714 23.2711 25.3961 23.4183 25.1799 23.6345C24.9638 23.8506 24.8166 24.126 24.757 24.4258C24.6973 24.7256 24.7279 25.0363 24.8449 25.3187C24.9619 25.6011 25.16 25.8425 25.4141 26.0123C25.6683 26.1821 25.9671 26.2727 26.2727 26.2727C26.6826 26.2727 27.0757 26.1099 27.3655 25.8201C27.6554 25.5302 27.8182 25.1372 27.8182 24.7273ZM30.9091 17H23.1818V21.2964C24.0939 20.4812 25.2912 20.0596 26.5127 20.1232C27.7343 20.1869 28.8813 20.7308 29.7036 21.6364H30.9091V17Z" fill="#D96581"/>
</svg>
