<svg width="36" height="28" viewBox="0 0 45 36" fill="none" xmlns="http://www.w3.org/2000/svg">
<path d="M44.8714 17.7782L40.05 6.60351C39.927 6.31497 39.7212 6.06877 39.4582 5.89561C39.1953 5.72245 38.8869 5.62998 38.5714 5.62972H33.75V2.43696C33.75 2.01357 33.5807 1.60753 33.2793 1.30815C32.9779 1.00877 32.5691 0.840576 32.1429 0.840576H1.60714C1.1809 0.840576 0.772119 1.00877 0.470721 1.30815C0.169323 1.60753 0 2.01357 0 2.43696V29.5754C0 29.9988 0.169323 30.4049 0.470721 30.7043C0.772119 31.0036 1.1809 31.1718 1.60714 31.1718H5.04643C5.41652 32.5245 6.22447 33.7187 7.3456 34.5701C8.46674 35.4215 9.83876 35.8827 11.25 35.8827C12.6612 35.8827 14.0333 35.4215 15.1544 34.5701C16.2755 33.7187 17.0835 32.5245 17.4536 31.1718H27.5464C27.9165 32.5245 28.7245 33.7187 29.8456 34.5701C30.9667 35.4215 32.3388 35.8827 33.75 35.8827C35.1612 35.8827 36.5333 35.4215 37.6544 34.5701C38.7755 33.7187 39.5835 32.5245 39.9536 31.1718H43.3929C43.8191 31.1718 44.2279 31.0036 44.5293 30.7043C44.8307 30.4049 45 29.9988 45 29.5754V18.4008C44.9996 18.1868 44.9559 17.9751 44.8714 17.7782ZM33.75 8.82248H37.5107L40.95 16.8044H33.75V8.82248ZM11.25 32.7682C10.6143 32.7682 9.99283 32.5809 9.46424 32.2301C8.93565 31.8793 8.52367 31.3807 8.28039 30.7973C8.0371 30.2139 7.97345 29.5719 8.09748 28.9526C8.2215 28.3332 8.52763 27.7643 8.97716 27.3178C9.42668 26.8713 9.99941 26.5672 10.6229 26.444C11.2464 26.3208 11.8927 26.3841 12.4801 26.6257C13.0674 26.8674 13.5694 27.2766 13.9226 27.8016C14.2758 28.3267 14.4643 28.944 14.4643 29.5754C14.4643 30.4222 14.1256 31.2343 13.5228 31.8331C12.92 32.4318 12.1025 32.7682 11.25 32.7682ZM27.5464 27.9791H17.4536C17.0835 26.6263 16.2755 25.4322 15.1544 24.5808C14.0333 23.7294 12.6612 23.2681 11.25 23.2681C9.83876 23.2681 8.46674 23.7294 7.3456 24.5808C6.22447 25.4322 5.41652 26.6263 5.04643 27.9791H3.21429V4.03334H30.5357V24.0839C29.8039 24.5058 29.1631 25.067 28.6501 25.7355C28.1372 26.4039 27.7621 27.1663 27.5464 27.9791ZM33.75 32.7682C33.1143 32.7682 32.4928 32.5809 31.9642 32.2301C31.4356 31.8793 31.0237 31.3807 30.7804 30.7973C30.5371 30.2139 30.4735 29.5719 30.5975 28.9526C30.7215 28.3332 31.0276 27.7643 31.4772 27.3178C31.9267 26.8713 32.4994 26.5672 33.1229 26.444C33.7464 26.3208 34.3927 26.3841 34.9801 26.6257C35.5674 26.8674 36.0694 27.2766 36.4226 27.8016C36.7758 28.3267 36.9643 28.944 36.9643 29.5754C36.9643 30.4222 36.6256 31.2343 36.0228 31.8331C35.42 32.4318 34.6025 32.7682 33.75 32.7682ZM41.7857 27.9791H39.9536C39.5982 26.6118 38.7965 25.4001 37.6741 24.5336C36.5516 23.667 35.1716 23.1945 33.75 23.1899V19.9972H41.7857V27.9791Z" fill="#818181"/>
</svg>
