<svg width="24" height="24" viewBox="0 0 24 24" fill="none" xmlns="http://www.w3.org/2000/svg">
<path fill-rule="evenodd" clip-rule="evenodd" d="M16.5496 3.901C16.6676 3.96037 16.7963 3.99575 16.9281 4.00509C17.0599 4.01443 17.1923 3.99755 17.3175 3.95542C17.4428 3.91329 17.5584 3.84675 17.6578 3.75964C17.7572 3.67253 17.8383 3.56659 17.8965 3.44793L18.8965 1.44763C19.015 1.21023 19.0344 0.935447 18.9504 0.683736C18.8664 0.432024 18.6859 0.224003 18.4485 0.105433C18.2112 -0.0131359 17.9364 -0.0325407 17.6848 0.0514882C17.4331 0.135517 17.2251 0.316096 17.1066 0.5535L16.1066 2.5538C16.0469 2.67128 16.011 2.7994 16.0009 2.93081C15.9909 3.06222 16.0069 3.19431 16.0481 3.31951C16.0892 3.4447 16.1547 3.56052 16.2408 3.66031C16.3269 3.76011 16.4318 3.8419 16.5496 3.901ZM12.7038 3.70808C12.5163 3.89564 12.2619 4.00101 11.9967 4.00101C11.7315 4.00101 11.4772 3.89564 11.2896 3.70808C11.1021 3.52051 10.9968 3.26612 10.9968 3.00086V1.00057C10.9968 0.735311 11.1021 0.480919 11.2896 0.293355C11.4772 0.10579 11.7315 0.00041777 11.9967 0.00041777C12.2619 0.00041777 12.5163 0.10579 12.7038 0.293355C12.8913 0.480919 12.9967 0.735311 12.9967 1.00057V3.00086C12.9967 3.26612 12.8913 3.52051 12.7038 3.70808ZM22.3564 8.40167L23.1433 9.47283C23.794 10.3555 24.0909 11.4497 23.9757 12.5402C23.8604 13.6308 23.3412 14.6387 22.5204 15.3657L14.5847 22.9998C13.8707 23.642 12.9449 23.9981 11.9847 24C11.0445 24.0018 10.1366 23.6568 9.43484 23.0308L1.44514 15.3227C0.628957 14.5801 0.120118 13.559 0.0187095 12.4602C-0.0826992 11.3613 0.230663 10.2642 0.897156 9.38482L1.71813 8.31066C2.26661 7.59451 2.97216 7.01387 3.7804 6.61349C4.58865 6.21311 5.47801 6.00367 6.37995 6.00131H17.6285C18.5494 6.00353 19.4569 6.22187 20.278 6.63877C21.0992 7.05566 21.811 7.65949 22.3564 8.40167ZM21.5304 10.654L20.7434 9.57985C20.3838 9.0915 19.9146 8.69433 19.3736 8.42023C18.8327 8.14614 18.235 8.00276 17.6285 8.00161H15.9356L16.5756 9.60185C16.7504 10.0536 16.8752 10.5231 16.9476 11.0021H21.7384C21.679 10.8804 21.6095 10.7639 21.5304 10.654ZM9.21785 13.8205L11.9867 20.0914L14.7676 13.6495C14.8429 13.4386 14.9017 13.2223 14.9436 13.0024H8.99186C9.04206 13.2814 9.1177 13.5552 9.21785 13.8205ZM9.25385 10.473C9.1911 10.6461 9.13867 10.8227 9.09686 11.0021H14.9186C14.8677 10.7785 14.8009 10.5589 14.7186 10.345L13.7817 8.00161H10.2378L9.25385 10.473ZM4.66714 8.40493C4.13457 8.66866 3.66962 9.05111 3.30807 9.52284L2.4891 10.602C2.39345 10.7267 2.31069 10.8607 2.24211 11.0021H7.02993C7.10919 10.5671 7.23214 10.1412 7.39692 9.73087L8.07989 8.00161H6.37995C5.78569 8.00322 5.19971 8.1412 4.66714 8.40493ZM2.20811 13.0024C2.34228 13.3281 2.54722 13.6198 2.80809 13.8565L10.1938 20.9795L7.36692 14.5786C7.17615 14.0703 7.04625 13.5412 6.97993 13.0024H2.20811ZM16.6216 14.4026L13.7677 21.0175L21.1634 13.9025C21.4386 13.6532 21.6548 13.3457 21.7964 13.0024H16.9656C16.9026 13.4803 16.7872 13.9499 16.6216 14.4026ZM6.68089 3.95171C6.42876 3.86721 6.22051 3.686 6.10196 3.44793L5.107 1.44763C4.98845 1.21023 4.96905 0.935447 5.05307 0.683736C5.13708 0.432024 5.31763 0.224003 5.55499 0.105433C5.79235 -0.0131359 6.06708 -0.0325407 6.31874 0.0514882C6.44335 0.093095 6.55855 0.158843 6.65776 0.244978C6.75696 0.331114 6.83824 0.43595 6.89694 0.5535L7.8969 2.5538C8.01545 2.79187 8.03458 3.06728 7.9501 3.31946C7.86562 3.57164 7.68444 3.77993 7.44642 3.8985C7.20839 4.01707 6.93303 4.03621 6.68089 3.95171Z" fill="#D96581"/>
</svg>
