<svg width="24" height="24" viewBox="0 0 24 24" fill="none" xmlns="http://www.w3.org/2000/svg">
<g clip-path="url(#clip0_321_538)">
<path d="M12.4791 14.265V10.986H23.5281C23.6361 11.557 23.6921 12.233 23.6921 12.965C23.6921 15.425 23.0201 18.467 20.8521 20.634C18.7441 22.829 16.0511 24 12.4831 24C5.86911 24 0.308105 18.613 0.308105 12C0.308105 5.387 5.86911 0 12.4831 0C16.1421 0 18.7481 1.436 20.7061 3.307L18.3921 5.62C16.9881 4.303 15.0851 3.279 12.4791 3.279C7.65011 3.279 3.87311 7.171 3.87311 12C3.87311 16.829 7.65011 20.721 12.4791 20.721C15.6111 20.721 17.3951 19.463 18.5381 18.32C19.4651 17.393 20.0751 16.069 20.3151 14.261L12.4791 14.265Z" fill="#D96581"/>
</g>
<defs>
<clipPath id="clip0_321_538">
<rect width="24" height="24" rx="10" fill="white"/>
</clipPath>
</defs>
</svg>
