<svg width="32" height="32" viewBox="0 0 42 42" fill="none" xmlns="http://www.w3.org/2000/svg">
<path d="M36.5002 21.1666V40.3333H5.8335V21.1666" stroke="#818181" stroke-width="3" stroke-linecap="round" stroke-linejoin="round"/>
<path d="M40.3333 11.5833H2V21.1666H40.3333V11.5833Z" stroke="#818181" stroke-width="3" stroke-linecap="round" stroke-linejoin="round"/>
<path d="M21.1667 40.3333V11.5833" stroke="#818181" stroke-width="3" stroke-linecap="round" stroke-linejoin="round"/>
<path d="M21.1667 11.5833H12.5417C11.2708 11.5833 10.0521 11.0785 9.15345 10.1799C8.25483 9.28127 7.75 8.06249 7.75 6.79167C7.75 5.52084 8.25483 4.30206 9.15345 3.40345C10.0521 2.50483 11.2708 2 12.5417 2C19.25 2 21.1667 11.5833 21.1667 11.5833Z" stroke="#818181" stroke-width="3" stroke-linecap="round" stroke-linejoin="round"/>
<path d="M21.1667 11.5833H29.7917C31.0626 11.5833 32.2814 11.0785 33.18 10.1799C34.0786 9.28127 34.5834 8.06249 34.5834 6.79167C34.5834 5.52084 34.0786 4.30206 33.18 3.40345C32.2814 2.50483 31.0626 2 29.7917 2C23.0834 2 21.1667 11.5833 21.1667 11.5833Z" stroke="#818181" stroke-width="3" stroke-linecap="round" stroke-linejoin="round"/>
</svg>
