<svg width="136" height="122" viewBox="0 0 136 142" fill="none" xmlns="http://www.w3.org/2000/svg">
<path d="M65.6405 18.2381C66.422 16.0064 69.578 16.0064 70.3595 18.2381L79.3912 44.0301C80.6992 47.7652 84.1856 50.2982 88.142 50.3879L115.463 51.0074C117.827 51.061 118.802 54.0626 116.921 55.4955L95.1822 72.0553C92.0341 74.4535 90.7024 78.552 91.8397 82.3425L99.693 108.517C100.373 110.782 97.8192 112.637 95.8753 111.291L73.4083 95.7337C70.1547 93.4807 65.8453 93.4807 62.5917 95.7337L40.1247 111.291C38.1808 112.637 35.6274 110.782 36.307 108.517L44.1603 82.3425C45.2976 78.552 43.9659 74.4535 40.8178 72.0553L19.0791 55.4955C17.1982 54.0626 18.1734 51.061 20.5374 51.0074L47.858 50.3879C51.8144 50.2982 55.3008 47.7652 56.6088 44.0301L65.6405 18.2381Z" stroke="#FFB72B" stroke-width="7"/>
<path d="M95.2002 26.7499L111.52 10.4299" stroke="#FFB72B" stroke-width="7" stroke-linecap="round"/>
<path d="M39.4404 26.7499L23.1204 10.4299" stroke="#FFB72B" stroke-width="7" stroke-linecap="round"/>
<path d="M107.44 84.0999L128.413 93.7335" stroke="#FFB72B" stroke-width="7" stroke-linecap="round"/>
<path d="M24.9468 83.5276L4.97312 95.092" stroke="#FFB72B" stroke-width="7" stroke-linecap="round"/>
<path d="M67.3203 121.27V137.59" stroke="#FFB72B" stroke-width="7" stroke-linecap="round"/>
</svg>
