<svg width="134" height="114" viewBox="0 0 164 104" fill="none" xmlns="http://www.w3.org/2000/svg">
<path d="M162.469 58.143L149.34 29.2598C148.252 26.8733 146.501 24.8496 144.295 23.4294C142.09 22.0091 139.523 21.2521 136.9 21.2484H112.748V10.9979C112.745 8.28015 111.664 5.67461 109.742 3.7529C107.82 1.8312 105.215 0.750282 102.497 0.747314H17.0758C14.3581 0.750282 11.7525 1.8312 9.83083 3.7529C7.90912 5.67461 6.82821 8.28015 6.82524 10.9979V52C6.82087 52.4515 6.90602 52.8994 7.07577 53.3177C7.24552 53.7361 7.4965 54.1167 7.81421 54.4375C8.13192 54.7583 8.51007 55.013 8.92678 55.1868C9.3435 55.3606 9.79053 55.4501 10.242 55.4501C10.6935 55.4501 11.1406 55.3606 11.5573 55.1868C11.974 55.013 12.3521 54.7583 12.6699 54.4375C12.9876 54.1167 13.2385 53.7361 13.4083 53.3177C13.578 52.8994 13.6632 52.4515 13.6588 52V10.9979C13.6598 10.0919 14.0202 9.22341 14.6608 8.58283C15.3013 7.94224 16.1699 7.58192 17.0758 7.5809H102.497C103.403 7.58192 104.272 7.94224 104.912 8.58283C105.553 9.22341 105.913 10.0919 105.914 10.9979V65.6675C105.913 66.5733 105.552 67.4417 104.912 68.0821C104.271 68.7226 103.403 69.083 102.497 69.0841H61.4949C60.5944 69.0929 59.7338 69.4567 59.1002 70.0965C58.4665 70.7363 58.111 71.6004 58.111 72.5009C58.111 73.4014 58.4665 74.2655 59.1002 74.9054C59.7338 75.5452 60.5944 75.909 61.4949 75.9177H102.497C105.215 75.9148 107.82 74.8338 109.742 72.9121C111.664 70.9904 112.745 68.3849 112.748 65.6672V28.082H136.9C138.212 28.0838 139.496 28.4623 140.599 29.1724C141.702 29.8825 142.577 30.8943 143.122 32.0877L144.407 34.9156H129.832C128.02 34.9173 126.283 35.6379 125.002 36.9191C123.721 38.2003 123 39.9375 122.998 41.7495V55.417C123 57.2288 123.72 58.9659 125.002 60.2471C126.283 61.5282 128.02 62.2488 129.832 62.2506H156.72C157.014 63.2098 157.164 64.2072 157.166 65.2104V79.335C157.165 80.2408 156.805 81.109 156.164 81.7495C155.524 82.39 154.656 82.7504 153.75 82.7516H143.155C142.367 78.8933 140.27 75.4255 137.22 72.935C134.17 70.4445 130.353 69.0842 126.415 69.0842C122.477 69.0842 118.66 70.4445 115.609 72.935C112.559 75.4255 110.463 78.8933 109.675 82.7516H54.3166C53.5289 78.8933 51.4325 75.4255 48.3822 72.935C45.3318 70.4445 41.5148 69.0842 37.5769 69.0842C33.6389 69.0842 29.8219 70.4445 26.7715 72.935C23.7212 75.4255 21.6248 78.8933 20.8371 82.7516H17.0758C16.1699 82.7504 15.3015 82.3901 14.6609 81.7495C14.0204 81.109 13.66 80.2405 13.6588 79.3347V75.918C14.5593 75.9093 15.4199 75.5455 16.0536 74.9057C16.6872 74.2658 17.0427 73.4017 17.0427 72.5013C17.0427 71.6007 16.6872 70.7366 16.0536 70.0968C15.4199 69.457 14.5593 69.0932 13.6588 69.0845H3.40828C2.50783 69.0932 1.64721 69.457 1.01355 70.0968C0.379887 70.7366 0.0244141 71.6007 0.0244141 72.5013C0.0244141 73.4017 0.379887 74.2658 1.01355 74.9057C1.64721 75.5455 2.50783 75.9093 3.40828 75.918H6.82524V79.335C6.82821 82.0527 7.90912 84.6582 9.83083 86.5799C11.7525 88.5016 14.3581 89.5826 17.0758 89.5855H20.8374C21.6251 93.4439 23.7215 96.9116 26.7719 99.4022C29.8222 101.893 33.6393 103.253 37.5772 103.253C41.5151 103.253 45.3321 101.893 48.3825 99.4022C51.4329 96.9116 53.5292 93.4439 54.317 89.5855H109.675C110.463 93.4439 112.559 96.9116 115.61 99.4022C118.66 101.893 122.477 103.253 126.415 103.253C130.353 103.253 134.17 101.893 137.22 99.4022C140.271 96.9116 142.367 93.4439 143.155 89.5855H153.75C156.467 89.5826 159.073 88.5016 160.995 86.5799C162.916 84.6582 163.997 82.0527 164 79.335V65.2104C164.004 62.7718 163.482 60.3611 162.469 58.143ZM37.5769 96.4191C35.5495 96.4191 33.5677 95.8179 31.882 94.6916C30.1963 93.5653 28.8824 91.9643 28.1066 90.0913C27.3308 88.2183 27.1278 86.1572 27.5233 84.1688C27.9188 82.1804 28.8951 80.3539 30.3286 78.9204C31.7622 77.4868 33.5887 76.5105 35.5771 76.115C37.5655 75.7195 39.6265 75.9225 41.4996 76.6983C43.3726 77.4742 44.9735 78.788 46.0999 80.4737C47.2262 82.1594 47.8274 84.1412 47.8274 86.1686C47.8244 88.8863 46.7435 91.4918 44.8218 93.4135C42.9001 95.3352 40.2946 96.4162 37.5769 96.4191ZM126.415 96.4191C124.387 96.4191 122.406 95.8179 120.72 94.6916C119.034 93.5653 117.72 91.9643 116.945 90.0913C116.169 88.2183 115.966 86.1572 116.361 84.1688C116.757 82.1804 117.733 80.3539 119.167 78.9204C120.6 77.4868 122.427 76.5105 124.415 76.115C126.403 75.7195 128.464 75.9225 130.337 76.6983C132.211 77.4742 133.811 78.788 134.938 80.4737C136.064 82.1594 136.665 84.1412 136.665 86.1686C136.662 88.8862 135.581 91.4917 133.66 93.4134C131.738 95.3351 129.133 96.4161 126.415 96.4191H126.415ZM129.832 41.7495H147.512L153.724 55.417H129.832V41.7495Z" fill="#17C3B2"/>
<path d="M3.40828 65.6673H20.4924C21.3929 65.6586 22.2535 65.2948 22.8871 64.655C23.5208 64.0151 23.8763 63.151 23.8763 62.2505C23.8763 61.35 23.5208 60.4859 22.8871 59.8461C22.2535 59.2063 21.3929 58.8425 20.4924 58.8337H3.40828C2.50782 58.8425 1.64721 59.2063 1.01355 59.8461C0.379887 60.4859 0.0244141 61.35 0.0244141 62.2505C0.0244141 63.151 0.379887 64.0151 1.01355 64.655C1.64721 65.2948 2.50782 65.6586 3.40828 65.6673Z" fill="#17C3B2"/>
</svg>
