<svg width="28" height="28" viewBox="0 0 28 28" fill="none" xmlns="http://www.w3.org/2000/svg">
<path d="M26.9745 10.5556L18.1253 1.70523C17.0301 0.613217 15.5466 0 14 0C12.4534 0 10.9699 0.613217 9.87467 1.70523L1.02551 10.5556C0.699343 10.8796 0.440745 11.2652 0.26471 11.69C0.088675 12.1148 -0.00129547 12.5703 1.40927e-05 13.03V24.4832C1.40927e-05 25.4115 0.368763 26.3017 1.02514 26.9581C1.68152 27.6145 2.57175 27.9832 3.50001 27.9832H24.5C25.4282 27.9832 26.3185 27.6145 26.9749 26.9581C27.6312 26.3017 28 25.4115 28 24.4832V13.03C28.0013 12.5703 27.9113 12.1148 27.7353 11.69C27.5593 11.2652 27.3007 10.8796 26.9745 10.5556ZM17.5 25.6499H10.5V21.0602C10.5 20.132 10.8688 19.2417 11.5251 18.5853C12.1815 17.929 13.0717 17.5602 14 17.5602C14.9283 17.5602 15.8185 17.929 16.4749 18.5853C17.1312 19.2417 17.5 20.132 17.5 21.0602V25.6499ZM25.6667 24.4832C25.6667 24.7926 25.5437 25.0894 25.3249 25.3082C25.1062 25.527 24.8094 25.6499 24.5 25.6499H19.8333V21.0602C19.8333 19.5131 19.2187 18.0294 18.1248 16.9354C17.0308 15.8415 15.5471 15.2269 14 15.2269C12.4529 15.2269 10.9692 15.8415 9.87521 16.9354C8.78125 18.0294 8.16667 19.5131 8.16667 21.0602V25.6499H3.50001C3.19059 25.6499 2.89385 25.527 2.67505 25.3082C2.45626 25.0894 2.33334 24.7926 2.33334 24.4832V13.03C2.33443 12.7209 2.45723 12.4245 2.67518 12.2052L11.5243 3.35839C12.182 2.70381 13.0721 2.33633 14 2.33633C14.9279 2.33633 15.818 2.70381 16.4757 3.35839L25.3248 12.2087C25.5419 12.4272 25.6647 12.7221 25.6667 13.03V24.4832Z" fill="#72509D"/>
</svg>
