<svg width="36" height="36" viewBox="0 0 36 36" fill="none" xmlns="http://www.w3.org/2000/svg">
<path d="M18 3.243C22.806 3.243 23.376 3.261 25.2735 3.348C27.2355 3.438 29.256 3.885 30.6855 5.3145C32.1285 6.7575 32.562 8.7585 32.652 10.7265C32.739 12.624 32.757 13.194 32.757 18C32.757 22.806 32.739 23.376 32.652 25.2735C32.5635 27.225 32.106 29.265 30.6855 30.6855C29.2425 32.1285 27.243 32.562 25.2735 32.652C23.376 32.739 22.806 32.757 18 32.757C13.194 32.757 12.624 32.739 10.7265 32.652C8.79 32.5635 6.723 32.0955 5.3145 30.6855C3.879 29.25 3.438 27.2295 3.348 25.2735C3.261 23.376 3.243 22.806 3.243 18C3.243 13.194 3.261 12.624 3.348 10.7265C3.4365 8.7825 3.8985 6.7305 5.3145 5.3145C6.7545 3.8745 8.763 3.438 10.7265 3.348C12.624 3.261 13.194 3.243 18 3.243ZM18 0C13.1115 0 12.498 0.021 10.578 0.108C7.7955 0.2355 5.0325 1.0095 3.021 3.021C1.002 5.04 0.2355 7.797 0.108 10.578C0.021 12.498 0 13.1115 0 18C0 22.8885 0.021 23.502 0.108 25.422C0.2355 28.2015 1.0125 30.972 3.021 32.979C5.0385 34.9965 7.8 35.7645 10.578 35.892C12.498 35.979 13.1115 36 18 36C22.8885 36 23.502 35.979 25.422 35.892C28.203 35.7645 30.969 34.989 32.979 32.979C34.9995 30.9585 35.7645 28.203 35.892 25.422C35.979 23.502 36 22.8885 36 18C36 13.1115 35.979 12.498 35.892 10.578C35.7645 7.7955 34.989 5.031 32.979 3.021C30.9645 1.0065 28.1955 0.234 25.422 0.108C23.502 0.021 22.8885 0 18 0Z" fill="white"/>
<path d="M18 8.75708C12.8955 8.75708 8.75702 12.8956 8.75702 18.0001C8.75702 23.1046 12.8955 27.2431 18 27.2431C23.1045 27.2431 27.243 23.1046 27.243 18.0001C27.243 12.8956 23.1045 8.75708 18 8.75708ZM18 24.0001C14.6865 24.0001 12 21.3136 12 18.0001C12 14.6866 14.6865 12.0001 18 12.0001C21.3135 12.0001 24 14.6866 24 18.0001C24 21.3136 21.3135 24.0001 18 24.0001Z" fill="white"/>
<path d="M27.609 10.551C28.8019 10.551 29.769 9.58389 29.769 8.39096C29.769 7.19802 28.8019 6.23096 27.609 6.23096C26.416 6.23096 25.449 7.19802 25.449 8.39096C25.449 9.58389 26.416 10.551 27.609 10.551Z" fill="white"/>
</svg>
