<svg width="31" height="23" viewBox="0 0 31 23" fill="none" xmlns="http://www.w3.org/2000/svg">
<path d="M24.2778 0H6.38889C2.81111 0 0 2.81111 0 6.38889V16.6111C0 20.1889 2.81111 23 6.38889 23H24.2778C27.8556 23 30.6667 20.1889 30.6667 16.6111V6.38889C30.6667 2.81111 27.8556 0 24.2778 0ZM6.38889 2.55556H24.2778C26.45 2.55556 28.1111 4.21667 28.1111 6.38889H2.55556C2.55556 4.21667 4.21667 2.55556 6.38889 2.55556ZM24.2778 20.4444H6.38889C4.21667 20.4444 2.55556 18.7833 2.55556 16.6111V8.94444H28.1111V16.6111C28.1111 18.7833 26.45 20.4444 24.2778 20.4444Z" fill="#72509D"/>
</svg>
