<svg width="24" height="28" viewBox="0 0 28 34" fill="none" xmlns="http://www.w3.org/2000/svg">
<path d="M23.8 11.5907V9.63143C23.8 7.07701 22.7675 4.62722 20.9296 2.82098C19.0918 1.01474 16.5991 0 14 0C11.4009 0 8.90821 1.01474 7.07035 2.82098C5.2325 4.62722 4.2 7.07701 4.2 9.63143V11.5907C2.9531 12.1256 1.89181 13.0059 1.1459 14.1241C0.399988 15.2423 0.00178973 16.5499 0 17.8869V26.1424C0.002223 27.9664 0.740435 29.7149 2.05271 31.0046C3.36498 32.2943 5.14417 33.0198 7 33.022H21C22.8558 33.0198 24.635 32.2943 25.9473 31.0046C27.2596 29.7149 27.9978 27.9664 28 26.1424V17.8869C27.9982 16.5499 27.6 15.2423 26.8541 14.1241C26.1082 13.0059 25.0469 12.1256 23.8 11.5907ZM7 9.63143C7 7.80685 7.7375 6.05699 9.05025 4.76682C10.363 3.47665 12.1435 2.75184 14 2.75184C15.8565 2.75184 17.637 3.47665 18.9497 4.76682C20.2625 6.05699 21 7.80685 21 9.63143V11.0073H7V9.63143ZM25.2 26.1424C25.2 27.2372 24.7575 28.2871 23.9698 29.0612C23.1822 29.8353 22.1139 30.2702 21 30.2702H7C5.88609 30.2702 4.8178 29.8353 4.03015 29.0612C3.2425 28.2871 2.8 27.2372 2.8 26.1424V17.8869C2.8 16.7922 3.2425 15.7423 4.03015 14.9682C4.8178 14.1941 5.88609 13.7592 7 13.7592H21C22.1139 13.7592 23.1822 14.1941 23.9698 14.9682C24.7575 15.7423 25.2 16.7922 25.2 17.8869V26.1424Z" fill="#818181"/>
<path d="M13.9996 19.2627C13.6283 19.2627 13.2722 19.4077 13.0097 19.6657C12.7471 19.9237 12.5996 20.2737 12.5996 20.6386V23.3904C12.5996 23.7554 12.7471 24.1053 13.0097 24.3634C13.2722 24.6214 13.6283 24.7664 13.9996 24.7664C14.3709 24.7664 14.727 24.6214 14.9895 24.3634C15.2521 24.1053 15.3996 23.7554 15.3996 23.3904V20.6386C15.3996 20.2737 15.2521 19.9237 14.9895 19.6657C14.727 19.4077 14.3709 19.2627 13.9996 19.2627Z" fill="#818181"/>
</svg>
