<svg width="36" height="36" viewBox="0 0 36 36" fill="none" xmlns="http://www.w3.org/2000/svg">
<g clip-path="url(#clip0_321_617)">
<path d="M35.931 8.31299L23.304 20.94C21.8961 22.3444 19.9886 23.133 18 23.133C16.0114 23.133 14.1039 22.3444 12.696 20.94L0.069 8.31299C0.048 8.54999 0 8.76449 0 8.99999V27C0.00238179 28.9884 0.793323 30.8947 2.19933 32.3007C3.60534 33.7067 5.51161 34.4976 7.5 34.5H28.5C30.4884 34.4976 32.3947 33.7067 33.8007 32.3007C35.2067 30.8947 35.9976 28.9884 36 27V8.99999C36 8.76449 35.952 8.54999 35.931 8.31299Z" fill="white"/>
<path d="M21.183 18.819L34.884 5.1165C34.2203 4.01598 33.2842 3.10506 32.166 2.4716C31.0478 1.83813 29.7852 1.50351 28.5 1.5H7.50003C6.21486 1.50351 4.95228 1.83813 3.83407 2.4716C2.71586 3.10506 1.77975 4.01598 1.11603 5.1165L14.817 18.819C15.6624 19.661 16.8069 20.1337 18 20.1337C19.1932 20.1337 20.3377 19.661 21.183 18.819Z" fill="white"/>
</g>
<defs>
<clipPath id="clip0_321_617">
<rect width="36" height="36" fill="white"/>
</clipPath>
</defs>
</svg>
