<svg width="45" height="61" viewBox="0 0 45 61" fill="none" xmlns="http://www.w3.org/2000/svg">
<path d="M22.5 0C10.0746 0 0 10.0746 0 22.5C0 31.5715 3.16055 34.1051 20.1914 58.793C21.3083 60.4067 23.6965 60.4067 24.8133 58.793C41.8359 34.1016 45 31.5703 45 22.5C45 10.0746 34.9219 0 22.5 0ZM22.5 31.7695C17.3285 31.7695 13.125 27.5648 13.125 22.3945C13.125 17.2242 17.332 13.0195 22.5 13.0195C27.668 13.0195 31.875 17.2242 31.875 22.3945C31.875 27.5648 27.668 31.7695 22.5 31.7695Z" fill="#D96581"/>
</svg>
