<svg width="24" height="24" viewBox="0 0 24 24" fill="none" xmlns="http://www.w3.org/2000/svg">
<path d="M20.8857 15.3311L17.108 21.486C16.6932 22.166 16.1285 22.7426 15.4568 23.1718C14.7852 23.601 14.0244 23.8716 13.2323 23.963C13.0235 23.9877 12.8135 24.0001 12.6033 24C11.5272 23.9985 10.4778 23.665 9.59884 23.045C8.69054 23.7245 7.56855 24.0566 6.43614 23.9812C5.30373 23.9058 4.23582 23.4279 3.42589 22.6341C2.61597 21.8402 2.11761 20.783 2.02111 19.6539C1.92461 18.5247 2.23636 17.3985 2.89986 16.4791L1.5829 15.1661C1.02056 14.6045 0.592741 13.9232 0.331488 13.1732C0.0702347 12.4232 -0.0176836 11.6238 0.0743175 10.8351C0.166318 10.0463 0.435854 9.28853 0.862739 8.61851C1.28962 7.9485 1.86279 7.38361 2.53932 6.96614L8.31493 3.40017C9.87947 2.39896 11.7194 1.91354 13.575 2.0124C15.4307 2.11126 17.2084 2.78941 18.6573 3.95117L20.3188 2.29218C20.4112 2.19667 20.5217 2.12049 20.6439 2.06808C20.7661 2.01568 20.8975 1.98809 21.0305 1.98694C21.1634 1.98578 21.2953 2.01108 21.4184 2.06136C21.5415 2.11164 21.6533 2.1859 21.7473 2.27979C21.8414 2.37368 21.9157 2.48533 21.9661 2.60823C22.0164 2.73112 22.0418 2.8628 22.0406 2.99558C22.0395 3.12836 22.0118 3.25958 21.9594 3.38158C21.9069 3.50358 21.8306 3.61393 21.7349 3.70617L20.0754 5.36416C21.1884 6.75639 21.8601 8.44855 22.0044 10.2241C22.1488 11.9997 21.7592 13.7778 20.8857 15.3311ZM8.07257 21.647L4.34802 17.927C4.05696 18.4468 3.9447 19.0476 4.02846 19.6371C4.11222 20.2267 4.38737 20.7726 4.81171 21.191C5.23977 21.597 5.78423 21.8593 6.36892 21.941C6.95361 22.0228 7.54927 21.92 8.07257 21.647ZM18.0084 6.04715C16.8963 4.926 15.4323 4.22019 13.8614 4.04781C12.2905 3.87543 10.7079 4.24693 9.37851 5.10016L3.59289 8.66613C3.17331 8.92509 2.81784 9.27549 2.5531 9.69107C2.28836 10.1067 2.12122 10.5767 2.06419 11.0659C2.00716 11.5551 2.06172 12.0509 2.22378 12.5161C2.38585 12.9813 2.65121 13.4038 3.00001 13.7521L10.3009 21.043C10.6502 21.3923 11.0744 21.6578 11.5413 21.8198C12.0083 21.9818 12.506 22.0359 12.9969 21.9782C13.4879 21.9204 13.9593 21.7523 14.3758 21.4864C14.7923 21.2205 15.143 20.8638 15.4015 20.443L19.1621 14.3181C19.8966 13.0008 20.1813 11.4805 19.9731 9.98721C19.765 8.49394 19.0752 7.10904 18.0084 6.04215V6.04715ZM19.2893 24C19.0778 24.0004 18.8716 23.9339 18.7002 23.8101C18.5289 23.6862 18.4012 23.5114 18.3355 23.3107C18.2698 23.11 18.2694 22.8936 18.3344 22.6927C18.3994 22.4917 18.5265 22.3164 18.6974 22.192C20.451 20.8756 21.6378 18.9427 22.0173 16.7851C22.0439 16.6552 22.0962 16.5319 22.1709 16.4223C22.2457 16.3128 22.3416 16.2191 22.4529 16.1469C22.5642 16.0747 22.6889 16.0253 22.8195 16.0016C22.9501 15.9779 23.0842 15.9804 23.2139 16.0089C23.3435 16.0374 23.4662 16.0914 23.5748 16.1676C23.6834 16.2439 23.7757 16.341 23.8464 16.4533C23.917 16.5655 23.9646 16.6907 23.9864 16.8214C24.0082 16.9522 24.0037 17.086 23.9732 17.2151C23.4825 19.8467 22.0217 22.1991 19.8792 23.808C19.7078 23.9327 19.5013 24 19.2893 24ZM0.997028 5.73915C0.812055 5.73833 0.630924 5.68637 0.473719 5.58904C0.316514 5.49171 0.189378 5.3528 0.106406 5.18773C0.0234336 5.02265 -0.0121315 4.83786 0.00365376 4.65384C0.019439 4.46981 0.0859577 4.29375 0.195834 4.14517C1.82925 1.96578 4.23367 0.490522 6.91885 0.0202038C7.17915 -0.0328391 7.44989 0.0195394 7.67151 0.165817C7.89314 0.312094 8.04749 0.540287 8.10061 0.800197C8.15373 1.06011 8.10127 1.33044 7.95478 1.55173C7.80828 1.77302 7.57974 1.92714 7.31944 1.98019C5.11414 2.34381 3.13545 3.5458 1.79822 5.33416C1.70546 5.45927 1.58473 5.56104 1.44563 5.63135C1.30654 5.70166 1.15293 5.73857 0.997028 5.73915Z" fill="#9BABBF"/>
</svg>
