<svg width="24" height="24" viewBox="0 0 24 24" fill="none" xmlns="http://www.w3.org/2000/svg">
<path fill-rule="evenodd" clip-rule="evenodd" d="M3.15192 5.53846C2.9392 5.53846 2.73519 5.44121 2.58478 5.2681C2.43437 5.09499 2.34986 4.8602 2.34986 4.61538V0.923077C2.34986 0.678262 2.43437 0.443473 2.58478 0.270363C2.73519 0.0972524 2.9392 0 3.15192 0H6.36013C6.57285 0 6.77686 0.0972524 6.92727 0.270363C7.07768 0.443473 7.16219 0.678262 7.16219 0.923077C7.16219 1.16789 7.07768 1.40268 6.92727 1.57579C6.77686 1.7489 6.57285 1.84615 6.36013 1.84615H3.95397V4.61538C3.95397 4.8602 3.86947 5.09499 3.71906 5.2681C3.56864 5.44121 3.36464 5.53846 3.15192 5.53846ZM23.2031 11.0762C23.0359 11.075 22.8733 11.0137 22.7379 10.9008L11.9743 2.05777L1.21077 10.9008C1.03809 11.0185 0.833344 11.0575 0.636949 11.0099C0.440554 10.9624 0.266784 10.8318 0.149942 10.644C0.0331011 10.4562 -0.0183199 10.2248 0.00583034 9.99553C0.0299806 9.76624 0.127947 9.55569 0.28039 9.40546L11.5091 0.174691C11.645 0.0633831 11.8076 0.00356821 11.9743 0.00356821C12.1411 0.00356821 12.3037 0.0633831 12.4395 0.174691L23.6683 9.40546C23.8052 9.51955 23.9073 9.68053 23.96 9.8654C24.0127 10.0503 24.0133 10.2496 23.9617 10.4349C23.9102 10.6201 23.809 10.7819 23.6728 10.8971C23.5365 11.0123 23.3721 11.075 23.2031 11.0762ZM15.1827 24H19.193C19.8311 24 20.4431 23.7082 20.8944 23.1889C21.3456 22.6696 21.5991 21.9652 21.5991 21.2307V12C21.5991 11.7552 21.5146 11.5204 21.3642 11.3473C21.2138 11.1741 21.0098 11.0769 20.7971 11.0769C20.5844 11.0769 20.3804 11.1741 20.2299 11.3473C20.0795 11.5204 19.995 11.7552 19.995 12V21.2307C19.995 21.4756 19.9105 21.7103 19.7601 21.8835C19.6097 22.0566 19.4057 22.1538 19.193 22.1538H15.9848V15.6923C15.9848 15.4475 15.9003 15.2127 15.7498 15.0396C15.5994 14.8665 15.3954 14.7692 15.1827 14.7692H8.76628C8.55357 14.7692 8.34956 14.8665 8.19915 15.0396C8.04873 15.2127 7.96423 15.4475 7.96423 15.6923V22.1538H4.75601C4.5433 22.1538 4.33929 22.0566 4.18888 21.8835C4.03846 21.7103 3.95396 21.4756 3.95396 21.2307V12C3.95396 11.7552 3.86946 11.5204 3.71904 11.3473C3.56863 11.1741 3.36462 11.0769 3.15191 11.0769C2.93919 11.0769 2.73518 11.1741 2.58477 11.3473C2.43436 11.5204 2.34985 11.7552 2.34985 12V21.2307C2.34985 21.9652 2.60336 22.6696 3.0546 23.1889C3.50584 23.7082 4.11786 24 4.75601 24H8.76628C8.979 24 9.18301 23.9027 9.33342 23.7296C9.48383 23.5565 9.56834 23.3217 9.56834 23.0769V16.6154H14.3807V23.0769C14.3807 23.3217 14.4652 23.5565 14.6156 23.7296C14.766 23.9027 14.97 24 15.1827 24Z" fill="white"/>
</svg>
