<svg width="24" height="24" viewBox="0 0 24 24" fill="none" xmlns="http://www.w3.org/2000/svg">
<path d="M12 12C12.7912 12 13.5645 11.7654 14.2223 11.3259C14.8801 10.8863 15.3928 10.2616 15.6955 9.53073C15.9983 8.79983 16.0775 7.99556 15.9232 7.21964C15.7688 6.44371 15.3879 5.73098 14.8284 5.17157C14.269 4.61216 13.5563 4.2312 12.7804 4.07686C12.0045 3.92252 11.2002 4.00173 10.4693 4.30448C9.73839 4.60723 9.11368 5.11992 8.67416 5.77772C8.23463 6.43551 8.00004 7.20887 8.00004 8C8.00004 9.06086 8.42146 10.0783 9.17161 10.8284C9.92175 11.5786 10.9392 12 12 12ZM12 6C12.3956 6 12.7823 6.1173 13.1112 6.33706C13.4401 6.55682 13.6964 6.86918 13.8478 7.23463C13.9992 7.60008 14.0388 8.00222 13.9616 8.39018C13.8844 8.77814 13.6939 9.13451 13.4142 9.41421C13.1345 9.69392 12.7782 9.8844 12.3902 9.96157C12.0022 10.0387 11.6001 9.99913 11.2347 9.84776C10.8692 9.69638 10.5569 9.44004 10.3371 9.11114C10.1173 8.78224 10 8.39556 10 8C10 7.46956 10.2107 6.96086 10.5858 6.58578C10.9609 6.21071 11.4696 6 12 6ZM20.66 9.157L19.941 8.918C20.0704 7.79792 19.9615 6.66314 19.6216 5.58808C19.2817 4.51302 18.7183 3.52196 17.9685 2.67989C17.2187 1.83782 16.2993 1.16376 15.2707 0.701913C14.2422 0.240067 13.1276 0.000867481 12 0C10.8578 0.000440969 9.72891 0.245694 8.68945 0.719235C7.64999 1.19278 6.7241 1.8836 5.97416 2.74517C5.22422 3.60675 4.66765 4.61904 4.34196 5.71387C4.01626 6.80869 3.92899 7.9606 4.08605 9.092C3.12908 9.27043 2.24418 9.72191 1.53805 10.392C1.04923 10.8567 0.660624 11.4166 0.396133 12.037C0.131643 12.6575 -0.00314537 13.3255 5.57069e-05 14V18.075C0.0021573 19.1563 0.353847 20.208 1.00264 21.0731C1.65144 21.9381 2.56256 22.5702 3.60005 22.875L6.47004 23.775C6.9521 23.925 7.45417 24.0009 7.95904 24C8.41703 23.9994 8.87283 23.9368 9.31403 23.814L15.094 22.104C15.6089 21.9635 16.1521 21.9635 16.667 22.104L19.054 22.904C19.6423 23.0472 20.2554 23.055 20.8472 22.9267C21.4389 22.7985 21.9938 22.5376 22.4701 22.1637C22.9463 21.7898 23.3314 21.3127 23.5965 20.7683C23.8615 20.2239 23.9995 19.6265 24 19.021V13.872C23.9977 12.8374 23.6755 11.8288 23.0776 10.9845C22.4796 10.1402 21.6352 9.50155 20.66 9.156V9.157ZM7.75804 3.762C8.31429 3.20349 8.97536 2.76032 9.70332 2.45793C10.4313 2.15554 11.2118 1.99988 12 1.99988C12.7883 1.99988 13.5688 2.15554 14.2967 2.45793C15.0247 2.76032 15.6858 3.20349 16.242 3.762C17.3642 4.89114 17.9949 6.41781 17.997 8.00973C17.9991 9.60165 17.3723 11.13 16.253 12.262L12.7 15.717C12.5146 15.8988 12.2652 16.0007 12.0055 16.0007C11.7458 16.0007 11.4965 15.8988 11.311 15.717L7.75804 12.277C6.63351 11.1454 6.00235 9.61484 6.00235 8.0195C6.00235 6.42416 6.63351 4.89361 7.75804 3.762ZM22 19.021C22.0006 19.3239 21.9321 19.6229 21.7997 19.8953C21.6673 20.1677 21.4745 20.4063 21.236 20.593C21.0106 20.7742 20.7481 20.9035 20.4671 20.9718C20.186 21.0401 19.8934 21.0456 19.61 20.988L17.265 20.2C16.378 19.9452 15.438 19.9396 14.548 20.184L8.76404 21.892C8.20831 22.0453 7.62019 22.0352 7.07004 21.863L4.17605 20.963C3.5497 20.7819 2.99901 20.4025 2.60665 19.8817C2.21429 19.361 2.00144 18.727 2.00005 18.075V14C1.9978 13.5958 2.07826 13.1954 2.23647 12.8234C2.39469 12.4514 2.62731 12.1157 2.92005 11.837C3.3783 11.4003 3.96206 11.1183 4.58905 11.031C4.99215 12.0302 5.59242 12.9379 6.35404 13.7L9.92103 17.153C10.4785 17.6989 11.2278 18.0046 12.008 18.0046C12.7883 18.0046 13.5375 17.6989 14.095 17.153L17.658 13.69C18.4558 12.889 19.0738 11.9274 19.471 10.869L20.008 11.047C20.5904 11.2557 21.0942 11.639 21.4507 12.1445C21.8072 12.6501 21.999 13.2534 22 13.872V19.021Z" fill="#9BABBF"/>
</svg>
