<svg width="28" height="28" viewBox="0 0 34 34" fill="none" xmlns="http://www.w3.org/2000/svg">
<path d="M32.5777 16.9991C32.2315 16.9951 31.8963 17.1202 31.6376 17.3502C31.3788 17.5801 31.2151 17.8983 31.1785 18.2425C30.9453 20.939 29.9433 23.5119 28.2913 25.6557C26.6394 27.7996 24.4069 29.4244 21.859 30.3373C19.311 31.2501 16.5547 31.4126 13.9171 30.8055C11.2796 30.1984 8.87165 28.8471 6.97922 26.9122H10.8666C11.2422 26.9122 11.6024 26.763 11.8679 26.4974C12.1335 26.2319 12.2827 25.8716 12.2827 25.4961C12.2827 25.1205 12.1335 24.7603 11.8679 24.4947C11.6024 24.2291 11.2422 24.0799 10.8666 24.0799H5.20194C4.45077 24.0799 3.73036 24.3783 3.19919 24.9095C2.66803 25.4406 2.36963 26.161 2.36963 26.9122V32.5768C2.36963 32.9524 2.51883 33.3126 2.78441 33.5782C3.04999 33.8438 3.4102 33.993 3.78579 33.993C4.16137 33.993 4.52158 33.8438 4.78716 33.5782C5.05274 33.3126 5.20194 32.9524 5.20194 32.5768V29.1243C7.49222 31.3788 10.3759 32.9363 13.5171 33.6153C16.6583 34.2943 19.9278 34.0669 22.9448 32.9596C25.9618 31.8523 28.6021 29.9106 30.5582 27.3608C32.5144 24.8109 33.7058 21.7577 33.9938 18.5569C34.0121 18.3597 33.9891 18.1608 33.9263 17.973C33.8635 17.7852 33.7623 17.6125 33.6291 17.4659C33.4958 17.3194 33.3335 17.2022 33.1525 17.1218C32.9715 17.0414 32.7757 16.9996 32.5777 16.9991Z" fill="#818181"/>
<path d="M30.2141 0.00521137C29.8385 0.00521137 29.4783 0.154413 29.2128 0.419994C28.9472 0.685575 28.798 1.04578 28.798 1.42137V4.87396C26.5077 2.61941 23.624 1.06193 20.4828 0.38291C17.3416 -0.296109 14.0721 -0.0687218 11.0551 1.03859C8.03812 2.1459 5.39781 4.08756 3.44168 6.63744C1.48555 9.18732 0.294099 12.2405 0.00609523 15.4413C-0.0121967 15.6385 0.0107909 15.8374 0.0735934 16.0252C0.136396 16.2131 0.237636 16.3858 0.370864 16.5323C0.504091 16.6789 0.666385 16.796 0.847403 16.8764C1.02842 16.9568 1.2242 16.9986 1.42225 16.9991C1.76838 17.0032 2.10359 16.878 2.36234 16.648C2.62109 16.4181 2.78478 16.0999 2.82141 15.7557C3.05459 13.0593 4.05665 10.4864 5.7086 8.34247C7.36056 6.19858 9.59303 4.57377 12.141 3.66094C14.6889 2.74811 17.4453 2.5856 20.0828 3.19272C22.7203 3.79984 25.1283 5.15107 27.0207 7.08599H23.1334C22.7578 7.08599 22.3976 7.2352 22.132 7.50078C21.8664 7.76636 21.7172 8.12656 21.7172 8.50215C21.7172 8.87774 21.8664 9.23794 22.132 9.50352C22.3976 9.76911 22.7578 9.91831 23.1334 9.91831H28.798C29.5492 9.91831 30.2696 9.6199 30.8007 9.08874C31.3319 8.55758 31.6303 7.83717 31.6303 7.08599V1.42137C31.6303 1.04578 31.4811 0.685575 31.2155 0.419994C30.9499 0.154413 30.5897 0.00521137 30.2141 0.00521137Z" fill="#818181"/>
</svg>
