<svg width="36" height="36" viewBox="0 0 36 36" fill="none" xmlns="http://www.w3.org/2000/svg">
<path d="M34.4972 24C34.265 24 34.0361 23.9461 33.8283 23.8425L30.8285 22.3425C30.4725 22.1647 30.2017 21.8527 30.0757 21.4752C29.9497 21.0977 29.9788 20.6856 30.1566 20.3295C30.3344 19.9734 30.6463 19.7026 31.0238 19.5766C31.4013 19.4506 31.8134 19.4797 32.1694 19.6575L35.1692 21.1575C35.4719 21.3084 35.7148 21.5573 35.8583 21.8636C36.0018 22.17 36.0376 22.5159 35.9598 22.8451C35.8819 23.1744 35.6951 23.4676 35.4296 23.6773C35.1641 23.8869 34.8355 24.0007 34.4972 24ZM32.1679 10.35L35.1677 8.85C35.5237 8.67217 35.7945 8.36019 35.9205 7.98268C36.0465 7.60517 36.0174 7.19305 35.8396 6.837C35.6618 6.48095 35.3498 6.21012 34.9724 6.08409C34.5949 5.95807 34.1828 5.98717 33.8268 6.165L30.827 7.665C30.471 7.84283 30.2002 8.15481 30.0742 8.53232C29.9482 8.90983 29.9773 9.32195 30.1551 9.678C30.3329 10.0341 30.6448 10.3049 31.0223 10.4309C31.3998 10.5569 31.8119 10.5278 32.1679 10.35ZM35.9971 15C35.9971 14.6022 35.8391 14.2206 35.5578 13.9393C35.2765 13.658 34.895 13.5 34.4972 13.5H31.4975C31.0997 13.5 30.7182 13.658 30.4369 13.9393C30.1556 14.2206 29.9976 14.6022 29.9976 15C29.9976 15.3978 30.1556 15.7794 30.4369 16.0607C30.7182 16.342 31.0997 16.5 31.4975 16.5H34.4972C34.895 16.5 35.2765 16.342 35.5578 16.0607C35.8391 15.7794 35.9971 15.3978 35.9971 15ZM26.9978 28.5V1.5C26.9978 1.10218 26.8398 0.720644 26.5585 0.43934C26.2772 0.158035 25.8957 0 25.4979 0C25.1001 0 24.7186 0.158035 24.4374 0.43934C24.1561 0.720644 23.9981 1.10218 23.9981 1.5C23.9981 5.9235 20.1239 7.5 16.4987 7.5H5.99952C4.40835 7.5 2.88234 8.13214 1.75722 9.25736C0.63209 10.3826 0 11.9087 0 13.5L0 16.5C0 18.0913 0.63209 19.6174 1.75722 20.7426C2.88234 21.8679 4.40835 22.5 5.99952 22.5H16.4987C20.1239 22.5 23.9981 24.0765 23.9981 28.5C23.9981 28.8978 24.1561 29.2794 24.4374 29.5607C24.7186 29.842 25.1001 30 25.4979 30C25.8957 30 26.2772 29.842 26.5585 29.5607C26.8398 29.2794 26.9978 28.8978 26.9978 28.5ZM12.278 25.5H5.99952C5.30119 25.4972 4.60557 25.4131 3.92668 25.2495L7.67638 33.6225C7.9913 34.3302 8.50459 34.9314 9.15412 35.3534C9.80364 35.7753 10.5615 35.9999 11.3361 36C11.9523 35.9992 12.5585 35.8441 13.0995 35.549C13.6405 35.2539 14.099 34.8281 14.4333 34.3103C14.7676 33.7926 14.967 33.1995 15.0134 32.5849C15.0598 31.9704 14.9516 31.354 14.6988 30.792L12.278 25.5Z" fill="white"/>
</svg>
