<svg width="24" height="20" viewBox="0 0 24 20" fill="none" xmlns="http://www.w3.org/2000/svg">
<path d="M23.622 9.48923L20.622 4.87385C20.2035 4.23 19.503 3.84615 18.75 3.84615H15.75V2.30769C15.75 1.03538 14.7405 0 13.5 0H2.25C1.0095 0 0 1.03538 0 2.30769V10.7692C0 12.0415 1.0095 13.0769 2.25 13.0769V15.3846C2.25 16.6569 3.2595 17.6923 4.5 17.6923H5.3565C5.69175 19.0162 6.8565 20 8.25075 20C9.6435 20 10.8082 19.0162 11.1435 17.6923H15.105C15.4402 19.0162 16.605 20 17.9993 20C19.392 20 20.5567 19.0162 20.892 17.6923H21.75C22.9905 17.6923 24 16.6569 24 15.3846V10.7692C24 10.3123 23.8695 9.86923 23.622 9.48923ZM2.25 11.5385C1.836 11.5385 1.5 11.1946 1.5 10.7692V2.30769C1.5 1.88231 1.836 1.53846 2.25 1.53846H13.5C13.9148 1.53846 14.25 1.88231 14.25 2.30769V3.84615V5.38462V10.7692C14.25 11.1946 13.9148 11.5385 13.5 11.5385H2.25ZM8.25075 18.4615C7.422 18.4615 6.75075 17.7723 6.75075 16.9231C6.75075 16.0738 7.422 15.3846 8.25075 15.3846C9.07875 15.3846 9.75075 16.0738 9.75075 16.9231C9.75075 17.7723 9.078 18.4615 8.25075 18.4615ZM18 18.4615C17.1712 18.4615 16.5 17.7723 16.5 16.9231C16.5 16.0738 17.1712 15.3846 18 15.3846C18.828 15.3846 19.5 16.0738 19.5 16.9231C19.5 17.7723 18.828 18.4615 18 18.4615ZM22.5 15.3846C22.5 15.81 22.1647 16.1538 21.75 16.1538H20.8927C20.5575 14.83 19.3927 13.8462 18 13.8462C16.6058 13.8462 15.441 14.83 15.1058 16.1538H11.1442C10.809 14.83 9.64425 13.8462 8.2515 13.8462C6.85725 13.8462 5.6925 14.83 5.35725 16.1538H4.5C4.086 16.1538 3.75 15.81 3.75 15.3846V13.0769H13.5C14.7405 13.0769 15.75 12.0415 15.75 10.7692V5.38462H18.75C19.0005 5.38462 19.2345 5.51308 19.374 5.72692L22.374 10.3423C22.4558 10.4685 22.5 10.6177 22.5 10.7692V15.3846Z" fill="#D96581"/>
</svg>
