<svg width="26" height="34" viewBox="0 0 26 34" fill="none" xmlns="http://www.w3.org/2000/svg">
<path fill-rule="evenodd" clip-rule="evenodd" d="M17.4723 15.5675C16.0745 16.5015 14.4311 17 12.75 17C10.4963 16.9978 8.33565 16.1015 6.74208 14.5079C5.14851 12.9144 4.25225 10.7537 4.25 8.5C4.25 6.81886 4.74852 5.17547 5.68251 3.77766C6.6165 2.37984 7.94402 1.29037 9.49719 0.647028C11.0504 0.00368293 12.7594 -0.164645 14.4083 0.163329C16.0571 0.491303 17.5717 1.30085 18.7604 2.4896C19.9492 3.67834 20.7587 5.1929 21.0867 6.84174C21.4146 8.49057 21.2463 10.1996 20.603 11.7528C19.9596 13.306 18.8702 14.6335 17.4723 15.5675ZM15.8982 3.78834C14.9664 3.16568 13.8708 2.83334 12.75 2.83334C11.2471 2.83334 9.80577 3.43036 8.74306 4.49306C7.68035 5.55577 7.08333 6.99711 7.08333 8.5C7.08333 9.62076 7.41568 10.7164 8.03834 11.6482C8.661 12.5801 9.54601 13.3064 10.5815 13.7353C11.6169 14.1642 12.7563 14.2764 13.8555 14.0578C14.9547 13.8391 15.9644 13.2994 16.7569 12.5069C17.5494 11.7144 18.0891 10.7047 18.3078 9.60551C18.5264 8.50629 18.4142 7.36691 17.9853 6.33146C17.5564 5.29602 16.8301 4.411 15.8982 3.78834ZM3.73853 23.5719C6.12881 21.1816 9.36964 19.8371 12.75 19.8334C16.1304 19.8371 19.3712 21.1816 21.7615 23.5719C24.1517 25.9622 25.4962 29.203 25.5 32.5834C25.5 32.9591 25.3507 33.3194 25.0851 33.5851C24.8194 33.8508 24.4591 34 24.0833 34C23.7076 34 23.3473 33.8508 23.0816 33.5851C22.8159 33.3194 22.6667 32.9591 22.6667 32.5834C22.6667 29.9533 21.6219 27.431 19.7621 25.5712C17.9024 23.7115 15.3801 22.6667 12.75 22.6667C10.1199 22.6667 7.59759 23.7115 5.73786 25.5712C3.87812 27.431 2.83333 29.9533 2.83333 32.5834C2.83333 32.9591 2.68408 33.3194 2.4184 33.5851C2.15272 33.8508 1.79239 34 1.41667 34C1.04094 34 0.680608 33.8508 0.414932 33.5851C0.149255 33.3194 0 32.9591 0 32.5834C0.00374971 29.203 1.34825 25.9622 3.73853 23.5719Z" fill="#D96581"/>
</svg>
