<svg width="103" height="103" viewBox="0 0 113 113" fill="none" xmlns="http://www.w3.org/2000/svg">
<path fill-rule="evenodd" clip-rule="evenodd" d="M56.6057 9.41667C30.5536 9.41667 9.43428 30.4966 9.43428 56.5C9.43428 76.4558 21.8743 93.523 39.4531 100.375C41.8798 101.321 43.0787 104.051 42.1311 106.474C41.1833 108.896 38.4478 110.093 36.0211 109.147C14.9444 100.931 0 80.4631 0 56.5C0 25.2959 25.3432 0 56.6057 0C68.9273 0 80.3333 3.93313 89.6256 10.6043V4.70833C89.6256 2.10799 91.7375 0 94.3428 0C96.948 0 99.0599 2.10799 99.0599 4.70833V23.5417C99.0599 26.142 96.948 28.25 94.3428 28.25H75.4742C72.8689 28.25 70.7571 26.142 70.7571 23.5417C70.7571 20.9413 72.8689 18.8333 75.4742 18.8333H84.9141C77.0276 12.9177 67.2286 9.41667 56.6057 9.41667ZM56.6057 28.25C59.2109 28.25 61.3228 30.358 61.3228 32.9583V54.2372L83.1381 71.6566C85.1726 73.281 85.5024 76.2439 83.875 78.2746C82.2475 80.3053 79.279 80.6344 77.2445 79.0101L53.6589 60.1767C52.54 59.2831 51.8885 57.9304 51.8885 56.5V32.9583C51.8885 30.358 54.0004 28.25 56.6057 28.25ZM105.257 37.8444C107.764 37.1367 110.371 38.5914 111.08 41.0936C112.019 44.4069 112.662 47.8423 112.981 51.3693C113.215 53.9589 111.301 56.2476 108.706 56.4812C106.112 56.7142 103.819 54.8041 103.585 52.214C103.319 49.2732 102.783 46.4128 102.002 43.6564C101.293 41.1542 102.75 38.5521 105.257 37.8444ZM107.825 66.0942C110.331 66.8023 111.789 69.4041 111.08 71.9066C110.065 75.4906 108.704 78.9296 107.037 82.1849C105.851 84.5 103.009 85.4176 100.689 84.234C98.3698 83.0503 97.4504 80.214 98.6363 77.8984C100.025 75.1879 101.157 72.3257 102.002 69.3434C102.711 66.8414 105.318 65.3865 107.825 66.0942ZM95.6494 90.9344C97.4381 92.8253 97.3523 95.8052 95.4579 97.5901C92.9984 99.9075 90.3304 102.008 87.485 103.86C85.3024 105.28 82.3801 104.666 80.9569 102.487C79.5342 100.309 80.1498 97.3919 82.332 95.9718C84.7042 94.428 86.9293 92.6765 88.9813 90.7432C90.8757 88.9578 93.8611 89.0435 95.6494 90.9344ZM70.6792 106.587C71.15 109.145 69.4547 111.599 66.8923 112.069C63.5531 112.681 60.1147 113 56.6057 113C54.0004 113 51.8885 110.892 51.8885 108.292C51.8885 105.691 54.0004 103.583 56.6057 103.583C59.5402 103.583 62.4082 103.316 65.1875 102.807C67.7499 102.337 70.2089 104.03 70.6792 106.587Z" fill="#FF7D00"/>
</svg>
